<svg width="48" height="37" viewBox="0 0 48 37" fill="none" xmlns="http://www.w3.org/2000/svg">
<g clip-path="url(#clip0_188_10161)">
<path d="M16.0937 37C14.1552 37 11.8145 36.2583 9.55202 33.6746C7.79984 31.6772 6.47423 29.072 5.19182 26.5525C4.94344 26.0652 4.69776 25.5832 4.45477 25.1147L9.70861 22.4185C9.96239 22.9058 10.2162 23.4038 10.4727 23.9071C12.6946 28.2714 14.5575 31.5727 16.5904 31.0667C17.0683 30.9489 17.7919 30.7668 17.97 28.499C18.1482 26.2124 17.6164 22.97 17.1034 19.8347C16.531 16.3406 15.9398 12.726 16.1153 9.55053C16.3556 5.22106 18.051 2.28387 21.1612 0.82465C24.0122 -0.514086 26.8983 -0.219564 29.7385 1.69483C31.8228 3.1005 33.6641 5.21303 35.6133 7.44872C39.1771 11.5345 42.8596 15.7596 48.0001 15.7596V21.6259C40.1544 21.6259 35.1544 15.8935 31.1397 11.2855C27.1224 6.67761 25.4836 5.28532 23.6937 6.12605C21.0559 7.36304 22.0603 13.4891 22.9458 18.8922C23.5155 22.3676 24.104 25.9608 23.8718 28.9461C23.4561 34.3011 20.4674 36.1486 18.0348 36.7537C17.4571 36.8982 16.8037 36.9946 16.0991 36.9946L16.0937 37Z" fill="#FE6A00"/>
<path d="M6.20529 18.814C7.17897 17.2517 6.69127 15.2025 5.11598 14.2369C3.5407 13.2713 1.47437 13.7549 0.500693 15.3172C-0.47298 16.8794 0.0147197 18.9287 1.59 19.8943C3.16528 20.8599 5.23162 20.3762 6.20529 18.814Z" fill="#171B46"/>
</g>
<defs>
<clipPath id="clip0_188_10161">
<rect width="48" height="37" fill="white"/>
</clipPath>
</defs>
</svg>
