<svg width="114" height="30" viewBox="0 0 114 30" fill="none" xmlns="http://www.w3.org/2000/svg">
<g clip-path="url(#clip0_234_16928)">
<path d="M12.5173 29.5089C11.0096 29.5089 9.18905 28.9273 7.42937 26.9009C6.06657 25.3344 5.03554 23.2913 4.0381 21.3153C3.84492 20.9331 3.65383 20.5552 3.46484 20.1877L7.55116 18.0731C7.74855 18.4553 7.94594 18.8459 8.14542 19.2406C9.8736 22.6634 11.3225 25.2525 12.9037 24.8557C13.2754 24.7633 13.8381 24.6205 13.9767 22.8419C14.1153 21.0486 13.7016 18.5057 13.3027 16.0468C12.8575 13.3065 12.3976 10.4716 12.5341 7.98122C12.721 4.58575 14.0397 2.28221 16.4587 1.13779C18.6762 0.0878605 20.9209 0.318845 23.13 1.82024C24.7511 2.92267 26.1832 4.57945 27.6993 6.33283C30.4711 9.53721 33.3353 12.8508 37.3334 12.8508V17.4516C31.2312 17.4516 27.3423 12.9558 24.2198 9.34192C21.0952 5.72807 19.8206 4.63615 18.4284 5.2955C16.3769 6.26564 17.158 11.0701 17.8468 15.3076C18.2898 18.0332 18.7476 20.8512 18.567 23.1926C18.2436 27.3923 15.9191 28.8412 14.0271 29.3158C13.5777 29.4291 13.0696 29.5047 12.5215 29.5047L12.5173 29.5089Z" fill="#FE6A00"/>
<path d="M4.82631 15.2463C5.58362 14.021 5.20429 12.4139 3.97907 11.6566C2.75386 10.8993 1.14671 11.2786 0.389404 12.5038C-0.367897 13.729 0.0114249 15.3362 1.23664 16.0935C2.46186 16.8508 4.06901 16.4715 4.82631 15.2463Z" fill="white"/>
</g>
<g clip-path="url(#clip1_234_16928)">
<path d="M49.8016 17.1225C49.95 17.4839 50.1414 17.8022 50.4165 18.0773C50.9047 18.5655 51.6275 19.032 52.8789 19.032C54.81 19.032 55.5301 18.2904 55.5301 17.4408C55.5301 16.3997 53.7905 16.041 52.0294 15.6796C50.2682 15.3182 48.5286 14.5334 48.5286 12.5592C48.5286 10.9679 49.9068 9.58706 52.5607 9.58706C54.5349 9.58706 55.638 10.3935 56.3176 11.1783C56.679 11.6449 56.9541 12.1762 57.124 12.7695H55.3197C55.193 12.4944 55.0015 12.2167 54.7668 11.9847C54.365 11.5802 53.6638 11.1783 52.5607 11.1783C50.9478 11.1783 50.2277 11.9416 50.2277 12.5592C50.2277 13.6002 51.9673 13.9589 53.7285 14.3203C55.4896 14.6817 57.2292 15.4881 57.2292 17.4408C57.2292 19.1372 55.7432 20.6233 52.8789 20.6233C50.8211 20.6233 49.5885 19.7521 48.89 18.8837C48.4855 18.374 48.1888 17.7806 48 17.1225H49.8043H49.8016Z" fill="white"/>
<path d="M64.2306 19.032C66.2668 19.032 67.8392 17.4192 67.8392 15.1052C67.8392 12.7911 66.2695 11.1783 64.2306 11.1783C62.1916 11.1783 60.622 12.7911 60.622 15.1052C60.622 17.4192 62.1916 19.032 64.2306 19.032ZM58.9255 9.80012H60.622V11.4966H60.6435L60.8566 11.1783C61.1964 10.647 62.4047 9.58706 64.4437 9.58706C67.2243 9.58706 69.5356 11.92 69.5356 15.1052C69.5356 18.2904 67.2216 20.6233 64.4437 20.6233C62.429 20.6233 61.1964 19.5822 60.8566 19.0105L60.6435 18.7138H60.622V24.4423H58.9255V9.80012Z" fill="white"/>
<path d="M71.2322 9.80012H72.9286V11.4965H72.9502C73.1417 11.1567 73.3736 10.8601 73.673 10.6038C74.1827 10.1588 74.9676 9.69224 76.219 9.69224H77.492V11.3887H76.219C74.2879 11.3887 72.9286 12.748 72.9286 14.679V20.4075H71.2322V9.79742V9.80012Z" fill="white"/>
<path d="M87.3604 14.1504C87.1285 12.5592 85.7907 11.1783 83.7545 11.1783C81.7182 11.1783 80.3589 12.5592 80.0838 14.1504H87.3631H87.3604ZM83.7518 9.58975C86.8291 9.58975 89.162 11.9227 89.162 15V15.6365H80.038C80.2726 17.6107 81.7991 19.032 83.7518 19.032C85.0248 19.032 85.8743 18.5655 86.4461 18.0773C86.7644 17.8022 87.0395 17.4839 87.2525 17.1225H88.949C88.6954 17.7806 88.334 18.374 87.8675 18.8837C87.0395 19.7548 85.7665 20.6233 83.7518 20.6233C80.6745 20.6233 78.3416 18.2904 78.3416 15.1052C78.3416 11.92 80.6745 9.58706 83.7518 9.58706V9.58975Z" fill="white"/>
<path d="M96.1661 19.032C98.2024 19.032 99.7748 17.4192 99.7748 15.1052C99.7748 12.7911 98.2051 11.1783 96.1661 11.1783C94.1272 11.1783 92.5575 12.7911 92.5575 15.1052C92.5575 17.4192 94.1272 19.032 96.1661 19.032ZM95.9531 9.58975C97.9893 9.58975 99.1571 10.6497 99.5617 11.2026L99.7532 11.5208H99.7748V9.80282H101.471V20.4129H99.7748V18.7165H99.7532L99.5617 19.0132C99.1787 19.5849 97.992 20.626 95.9531 20.626C93.1724 20.626 90.8611 18.2931 90.8611 15.1079C90.8611 11.9227 93.1751 9.58975 95.9531 9.58975Z" fill="white"/>
<path d="M108.473 19.032C110.509 19.032 112.081 17.4192 112.081 15.1052C112.081 12.7911 110.512 11.1783 108.473 11.1783C106.434 11.1783 104.864 12.7911 104.864 15.1052C104.864 17.4192 106.434 19.032 108.473 19.032ZM108.26 9.58975C110.296 9.58975 111.485 10.6497 111.868 11.181L112.06 11.4992H112.081V5.5577H113.778V20.4129H112.081V18.7165H112.06L111.868 19.0132C111.485 19.5849 110.299 20.626 108.26 20.626C105.479 20.626 103.168 18.2931 103.168 15.1079C103.168 11.9227 105.482 9.58975 108.26 9.58975Z" fill="white"/>
</g>
<defs>
<clipPath id="clip0_234_16928">
<rect width="37.3333" height="29.0179" fill="white" transform="translate(0 0.491048)"/>
</clipPath>
<clipPath id="clip1_234_16928">
<rect width="65.7778" height="18.8846" fill="white" transform="translate(48 5.55771)"/>
</clipPath>
</defs>
</svg>
