<?xml version="1.0" encoding="UTF-8"?>
<svg id="Layer_2" data-name="Layer 2" xmlns="http://www.w3.org/2000/svg" viewBox="0 0 304.96 285.57">
  <defs>
    <style>
      .cls-1 {
        fill: none;
        stroke: #f15a24;
        stroke-width: 27.29px;
      }

      .cls-1, .cls-2 {
        stroke-miterlimit: 10;
      }

      .cls-3, .cls-2 {
        fill: #001e1d;
      }

      .cls-2 {
        stroke: #19132f;
      }
    </style>
  </defs>
  <g id="Guides">
    <g>
      <g>
        <path class="cls-2" d="M9,251.26c.69,1.67,1.57,3.13,2.84,4.41,2.25,2.25,5.59,4.41,11.37,4.41,8.92,0,12.25-3.43,12.25-7.35,0-4.8-8.04-6.47-16.17-8.13-8.13-1.67-16.17-5.29-16.17-14.41,0-7.35,6.37-13.72,18.62-13.72,9.11,0,14.21,3.72,17.35,7.35,1.67,2.16,2.94,4.61,3.72,7.35h-8.33c-.59-1.28-1.47-2.55-2.55-3.63-1.86-1.86-5.1-3.73-10.19-3.73-7.45,0-10.78,3.53-10.78,6.37,0,4.8,8.04,6.47,16.17,8.13,8.13,1.67,16.17,5.39,16.17,14.41,0,7.84-6.86,14.7-20.09,14.7-9.51,0-15.19-4.02-18.42-8.04-1.86-2.35-3.23-5.1-4.12-8.13h8.33Z"/>
        <path class="cls-2" d="M51.14,217.45h7.84v7.84h.1l.98-1.47c1.57-2.45,7.15-7.35,16.56-7.35,12.84,0,23.52,10.78,23.52,25.48s-10.68,25.48-23.52,25.48c-9.31,0-15-4.8-16.56-7.45l-.98-1.37h-.1v26.46h-7.84v-67.62ZM75.64,260.08c9.41,0,16.66-7.45,16.66-18.13s-7.25-18.13-16.66-18.13-16.66,7.45-16.66,18.13,7.25,18.13,16.66,18.13Z"/>
        <path class="cls-2" d="M107.97,217.45h7.84v7.84h.1c.88-1.57,1.96-2.94,3.33-4.12,2.35-2.06,5.98-4.21,11.76-4.21h5.88v7.84h-5.88c-8.92,0-15.19,6.27-15.19,15.19v26.46h-7.84v-49Z"/>
        <path class="cls-2" d="M165.79,216.47c14.21,0,24.99,10.78,24.99,24.99v2.94h-42.14c1.08,9.11,8.13,15.68,17.15,15.68,5.88,0,9.8-2.16,12.45-4.41,1.47-1.28,2.74-2.75,3.72-4.41h7.84c-1.18,3.04-2.84,5.78-5,8.13-3.82,4.02-9.7,8.04-19.01,8.04-14.21,0-24.99-10.78-24.99-25.48s10.78-25.48,24.99-25.48ZM182.45,237.54c-1.08-7.35-7.25-13.72-16.66-13.72s-15.68,6.37-16.95,13.72h33.61Z"/>
        <path class="cls-2" d="M222.14,216.47c9.41,0,14.8,4.9,16.66,7.45l.88,1.47h.1v-7.94h7.84v49h-7.84v-7.84h-.1l-.88,1.37c-1.76,2.65-7.25,7.45-16.66,7.45-12.84,0-23.52-10.78-23.52-25.48s10.68-25.48,23.52-25.48ZM223.12,260.08c9.41,0,16.66-7.45,16.66-18.13s-7.25-18.13-16.66-18.13-16.66,7.45-16.66,18.13,7.25,18.13,16.66,18.13Z"/>
        <path class="cls-2" d="M278.98,216.47c9.41,0,14.9,4.9,16.66,7.35l.88,1.47h.1v-27.44h7.84v68.6h-7.84v-7.84h-.1l-.88,1.37c-1.76,2.65-7.25,7.45-16.66,7.45-12.84,0-23.52-10.78-23.52-25.48s10.68-25.48,23.52-25.48ZM279.96,260.08c9.41,0,16.66-7.45,16.66-18.13s-7.25-18.13-16.66-18.13-16.66,7.45-16.66,18.13,7.25,18.13,16.66,18.13Z"/>
      </g>
      <path class="cls-1" d="M245.39,86.93c-58.83,0-79.22-89.14-117.98-70.79-43.01,20.36,21.44,130.29-23.6,141.58-22.89,5.74-35.13-23.87-47.19-47.19"/>
      <circle class="cls-3" cx="39.42" cy="79.35" r="15.47"/>
    </g>
  </g>
</svg>